<?xml version="1.0" encoding="UTF-8" standalone="no"?>
<svg
   width="24"
   height="24"
   viewBox="0 0 24 24"
   fill="none"
   version="1.1"
   id="svg4"
   sodipodi:docname="close.svg"
   inkscape:version="1.1.1 (3bf5ae0d25, 2021-09-20)"
   xmlns:inkscape="http://www.inkscape.org/namespaces/inkscape"
   xmlns:sodipodi="http://sodipodi.sourceforge.net/DTD/sodipodi-0.dtd"
   xmlns="http://www.w3.org/2000/svg"
   xmlns:svg="http://www.w3.org/2000/svg">
  <defs
     id="defs8" />
  <sodipodi:namedview
     id="namedview6"
     pagecolor="#ffffff"
     bordercolor="#666666"
     borderopacity="1.0"
     inkscape:pageshadow="2"
     inkscape:pageopacity="0.0"
     inkscape:pagecheckerboard="0"
     showgrid="false"
     inkscape:zoom="34.333333"
     inkscape:cx="11.985437"
     inkscape:cy="12.014563"
     inkscape:window-width="1920"
     inkscape:window-height="1009"
     inkscape:window-x="-8"
     inkscape:window-y="-8"
     inkscape:window-maximized="1"
     inkscape:current-layer="svg4" />
  <path
     d="M4.33474 4.33474C4.78105 3.88842 5.50467 3.88842 5.95098 4.33474L12 10.3838L18.049 4.33474C18.4953 3.88842 19.219 3.88842 19.6653 4.33474C20.1116 4.78105 20.1116 5.50467 19.6653 5.95098L13.6162 12L19.6653 18.049C20.1116 18.4953 20.1116 19.219 19.6653 19.6653C19.219 20.1116 18.4953 20.1116 18.049 19.6653L12 13.6162L5.95098 19.6653C5.50467 20.1116 4.78105 20.1116 4.33474 19.6653C3.88842 19.219 3.88842 18.4953 4.33474 18.049L10.3838 12L4.33474 5.95098C3.88842 5.50467 3.88842 4.78105 4.33474 4.33474Z"
     fill="#0D0D0D"
     id="path2"
     style="fill:#ffffff;fill-opacity:1" />
</svg>
