<svg width="24" height="24" viewBox="0 0 24 24" fill="none" xmlns="http://www.w3.org/2000/svg">
<path d="M18.7071 5.29289C19.0976 5.68342 19.0976 6.31658 18.7071 6.70711L6.70711 18.7071C6.31658 19.0976 5.68342 19.0976 5.29289 18.7071C4.90237 18.3166 4.90237 17.6834 5.29289 17.2929L17.2929 5.29289C17.6834 4.90237 18.3166 4.90237 18.7071 5.29289Z" fill="#0D0D0D"/>
<path d="M19.0711 12C19.4616 12.3905 19.4616 13.0237 19.0711 13.4142L13.4142 19.0711C13.0237 19.4616 12.3905 19.4616 12 19.0711C11.6095 18.6806 11.6095 18.0474 12 17.6569L17.6569 12C18.0474 11.6095 18.6806 11.6095 19.0711 12Z" fill="#0D0D0D"/>
</svg>
